<?xml version="1.0" encoding="utf-8"?>
<!-- Generator: Adobe Illustrator 16.0.3, SVG Export Plug-In . SVG Version: 6.00 Build 0)  -->
<!DOCTYPE svg PUBLIC "-//W3C//DTD SVG 1.1//EN" "http://www.w3.org/Graphics/SVG/1.1/DTD/svg11.dtd">
<svg version="1.1" id="Layer_1" xmlns="http://www.w3.org/2000/svg" xmlns:xlink="http://www.w3.org/1999/xlink" x="0px" y="0px"
	 width="128px" height="128px" viewBox="0 0 128 128" enable-background="new 0 0 128 128" xml:space="preserve">
<linearGradient id="SVGID_1_" gradientUnits="userSpaceOnUse" x1="15.667" y1="15.666" x2="110.3361" y2="110.3351">
	<stop  offset="4.384566e-04" style="stop-color:#3678C9"/>
	<stop  offset="1" style="stop-color:#56CAF7"/>
</linearGradient>
<circle fill="url(#SVGID_1_)" cx="64" cy="64" r="64"/>
<g>
	<g>
		<path fill="#3B3B3B" d="M64,126c10.44,0,20.295-0.501,29-4.936c9.871-5.029,18.262-12.546,24.353-21.723
			c-1.227-2.909-4.418-10.362-7.333-16.193c-3.956-7.908-18.367-11.767-19.701-12.108L78,66.936V64H50v2.857L37.455,71.04
			c-1.335,0.343-15.749,4.2-19.705,12.108c-3.118,6.236-5.895,14.064-6.791,16.675c5.212,7.702,12.057,14.208,20.037,19.021
			C40.633,124.656,51.926,126,64,126z"/>
	</g>
	<polygon fill="#FFDACC" points="76.002,70 82.002,74 64.002,80 46.002,74 52.002,70 52.002,66 76.002,66 	"/>
	<path fill="#3B3B3B" d="M86.287,40.09c0,0,3.818-29.562-22.172-29.562c-25.992,0-22.174,29.562-22.174,29.562s-3.695,0-3.695,3.695
		s3.695,11.086,7.391,11.086C53.027,73.35,60.422,73.35,64.115,73.35s11.086,0,18.477-18.479c3.695,0,7.393-7.391,7.393-11.086
		S86.287,40.09,86.287,40.09z"/>
	<path fill="#44A364" d="M108.23,84.043c-3.695-7.389-18.475-11.082-18.475-11.082l-11.088-3.695
		c-3.695,7.389-14.785,7.389-14.785,7.389s-11.086,0-14.781-7.389l-11.084,3.695c0,0-14.783,3.693-18.479,11.082
		c-3.695,7.391-7.135,17.763-7.135,17.763S29.125,128,64,128c34.625,0,52.025-26.65,52.025-26.65S111.926,91.434,108.23,84.043z"/>
	<g>
		<path fill="#3B3B3B" d="M91.444,71.41L80.592,67.85v31.684H47.637V67.602l-11.328,3.825l-7.45,33.583v12.472
			c10.088,6.642,22.159,9.396,35.141,9.396c13.081,0,25.239-2.81,35.373-9.545v-12.337L91.444,71.41z"/>
	</g>
	<path fill="#C9EBFF" d="M45.637,70.388l-7.619,2.573l-7.158,32.268v13.646c0,0,12.667,9.125,33.141,9.125
		c20.792,0,33.375-9.5,33.375-9.5l-0.002-13.271l-7.617-32.268l-7.164-2.351v30.923H45.637V70.388z"/>
	<path fill="#FFDACC" d="M45.635,43.785c0,0,0.008,3.695,3.703,3.695s7.383-3.695,14.773-3.695c7.393,0,11.094,3.695,14.789,3.695
		s3.689-3.695,3.689-3.695c0,7.391-3.693,14.781-7.389,14.781s-3.471-3.695-11.086-3.695s-7.391,3.695-11.088,3.695
		C49.332,58.566,45.635,51.176,45.635,43.785z"/>
	<path fill="#F0CC4A" d="M43.635,40.09c0,0,9.391-3.693,20.477-3.693c11.088,0,20.479,3.693,20.479,3.693s3.08-27.867-20.479-27.867
		C40.552,12.223,43.635,40.09,43.635,40.09z"/>
	<ellipse fill="#3B3B3B" cx="64.112" cy="25.309" rx="7.392" ry="3.695"/>
	<path fill="#FFB8B8" d="M58.633,62.26c0,0-0.123-0.492,0.336-0.361s1.877,0.491,5.143,0.491s4.871-0.401,5.295-0.562
		s0.197,0.432,0.197,0.432s-1.467,2.081-5.48,2.081C60.113,64.34,58.633,62.26,58.633,62.26z"/>
	<path fill="#FFDACC" d="M84.732,43.477c0,0,0.732-2.047,2.34-1.023s-0.586,7.748-3.947,10.379
		C83.125,52.832,85.025,47.717,84.732,43.477z"/>
	<path fill="#FFDACC" d="M43.469,43.477c0,0-0.732-2.047-2.34-1.023s0.586,7.748,3.947,10.379
		C45.076,52.832,43.176,47.717,43.469,43.477z"/>
</g>
<g>
	<path fill="#3B3B3B" d="M64.004,78.563c8.993,0,14.091-3.641,16.771-8.636l-2.107-0.662c-3.695,7.389-14.785,7.389-14.785,7.389
		s-11.086,0-14.781-7.389l-1.797,0.591C49.976,74.867,55.012,78.563,64.004,78.563z"/>
</g>
<path fill="#DBAD9C" d="M61.917,52.583c0,0.833,1.417,1.167,2.583,1.083s2.166-0.417,2.333-0.917s-1.499-2.417-2.5-2.25
	C63.333,50.667,61.917,51.75,61.917,52.583z"/>
</svg>
