<?xml version="1.0" encoding="utf-8"?>
<!-- Generator: Adobe Illustrator 16.0.3, SVG Export Plug-In . SVG Version: 6.00 Build 0)  -->
<!DOCTYPE svg PUBLIC "-//W3C//DTD SVG 1.1//EN" "http://www.w3.org/Graphics/SVG/1.1/DTD/svg11.dtd">
<svg version="1.1" id="Layer_1" xmlns="http://www.w3.org/2000/svg" xmlns:xlink="http://www.w3.org/1999/xlink" x="0px" y="0px"
	 width="32px" height="32px" viewBox="0.5 0.5 32 32" enable-background="new 0.5 0.5 32 32" xml:space="preserve">
<path d="M19.5,2.5h-9.125H4.5H4.375v28H4.5h5.875H19.5c0,0,9,0,9-8c0-3.562-2-5.312-3.5-6c1.75-1.312,2.5-2.938,2.5-6
	C27.5,2.5,19.5,2.5,19.5,2.5z M20.5,24.5H10.375v-5H20.5c0,0,2,0.245,2,2.581S20.5,24.5,20.5,24.5z M19.5,13.5h-9.125v-5H19.5
	c0,0,2,0.043,2,2.512S19.5,13.5,19.5,13.5z"/>
</svg>
