<?xml version="1.0" encoding="utf-8"?>
<!-- Generator: Adobe Illustrator 16.0.3, SVG Export Plug-In . SVG Version: 6.00 Build 0)  -->
<!DOCTYPE svg PUBLIC "-//W3C//DTD SVG 1.1//EN" "http://www.w3.org/Graphics/SVG/1.1/DTD/svg11.dtd">
<svg version="1.1" id="Layer_1" xmlns="http://www.w3.org/2000/svg" xmlns:xlink="http://www.w3.org/1999/xlink" x="0px" y="0px"
	 width="32px" height="32px" viewBox="0 0 32 32" enable-background="new 0 0 32 32" xml:space="preserve">
<path d="M24,0H8C3.6,0,0,3.6,0,8v16c0,4.4,3.6,8,8,8h16c4.4,0,8-3.6,8-8V8C32,3.6,28.4,0,24,0z M29,24c0,2.757-2.243,5-5,5H8
	c-2.757,0-5-2.243-5-5V8c0-2.757,2.243-5,5-5h16c2.757,0,5,2.243,5,5V24z"/>
<path d="M12.755,24.057c-0.038,0-0.076-0.001-0.114-0.003c-0.702-0.032-1.358-0.357-1.807-0.897L6.209,17.6
	c-0.883-1.062-0.739-2.638,0.322-3.521c1.061-0.884,2.638-0.74,3.521,0.322l2.873,3.451l9.177-9.176
	c0.977-0.977,2.559-0.977,3.535,0c0.977,0.976,0.977,2.559,0,3.535L14.523,23.324C14.053,23.794,13.417,24.057,12.755,24.057z"/>
</svg>
