<?xml version="1.0" encoding="utf-8"?>
<!-- Generator: Adobe Illustrator 16.0.3, SVG Export Plug-In . SVG Version: 6.00 Build 0)  -->
<!DOCTYPE svg PUBLIC "-//W3C//DTD SVG 1.1//EN" "http://www.w3.org/Graphics/SVG/1.1/DTD/svg11.dtd">
<svg version="1.1" id="Layer_1" xmlns="http://www.w3.org/2000/svg" xmlns:xlink="http://www.w3.org/1999/xlink" x="0px" y="0px"
	 width="32px" height="32px" viewBox="0.5 0.5 32 32" enable-background="new 0.5 0.5 32 32" xml:space="preserve">
<path d="M15.5,11.5c-10.714,0-15,10-15,10v1c0,0,4.286,10,15,10s15-10,15-10v-1C30.5,21.5,26.214,11.5,15.5,11.5z M20.13,15.462
	c0.229,0.466,0.37,0.983,0.37,1.538c0,1.933-1.566,3.5-3.5,3.5s-3.5-1.567-3.5-3.5c0-0.955,0.384-1.816,1.002-2.449
	c0.327-0.028,0.656-0.052,0.998-0.052C17.232,14.5,18.773,14.875,20.13,15.462z M15.5,29.5c-7.288,0-11.465-5.768-12.557-7.5
	c0.778-1.234,3.132-4.51,7.053-6.295C8.461,17.162,7.5,19.217,7.5,21.5C7.5,25.918,11.082,29.5,15.5,29.5s8-3.582,8-8
	c0-2.283-0.961-4.338-2.495-5.795c3.921,1.786,6.274,5.061,7.052,6.295C26.966,23.732,22.787,29.5,15.5,29.5z"/>
<path d="M32.5,10.5l-2,2l-4-4l-4,4l-2-2l4-4l-4-4l2-2l4,4l4-4l2,2l-4,4L32.5,10.5z"/>
</svg>
