<?xml version="1.0" encoding="utf-8"?>
<!-- Generator: Adobe Illustrator 16.0.3, SVG Export Plug-In . SVG Version: 6.00 Build 0)  -->
<!DOCTYPE svg PUBLIC "-//W3C//DTD SVG 1.1//EN" "http://www.w3.org/Graphics/SVG/1.1/DTD/svg11.dtd">
<svg version="1.1" id="Layer_1" xmlns="http://www.w3.org/2000/svg" xmlns:xlink="http://www.w3.org/1999/xlink" x="0px" y="0px"
	 width="32px" height="32px" viewBox="0 0 32 32" enable-background="new 0 0 32 32" xml:space="preserve">
<polygon points="29,5 2,9 1,6 28,2 "/>
<polygon points="18,5 12,7 10,2 16,0 "/>
<path d="M5,11c0,0,0,15,0,18s3,3,3,3h16.121c0,0,2.879,0,2.879-3s0-18,0-18H5z M24,29c0,0-16-0.001-16-0.001V14h16V29z"/>
<rect x="11" y="17" width="3" height="9"/>
<rect x="18" y="17" width="3" height="9"/>
</svg>
