<?xml version="1.0" encoding="utf-8"?>
<!-- Generator: Adobe Illustrator 16.0.3, SVG Export Plug-In . SVG Version: 6.00 Build 0)  -->
<!DOCTYPE svg PUBLIC "-//W3C//DTD SVG 1.1//EN" "http://www.w3.org/Graphics/SVG/1.1/DTD/svg11.dtd">
<svg version="1.1" id="Layer_1" xmlns="http://www.w3.org/2000/svg" xmlns:xlink="http://www.w3.org/1999/xlink" x="0px" y="0px"
	 width="64px" height="64px" viewBox="0 0 64 64" enable-background="new 0 0 64 64" xml:space="preserve">
<rect x="44.402" y="46.745" fill-rule="evenodd" clip-rule="evenodd" fill="#69FF5E" width="11.839" height="11.839"/>
<rect x="44.402" y="26.33" fill-rule="evenodd" clip-rule="evenodd" fill="#69FF5E" width="11.839" height="11.838"/>
<rect x="44.402" y="5.191" fill-rule="evenodd" clip-rule="evenodd" fill="#69FF5E" width="11.839" height="11.838"/>
<g>
	<g id="mQ9732_1_">
		<g>
			<path fill-rule="evenodd" clip-rule="evenodd" fill="#797A80" d="M4.805,40.488c0-5.735,0-11.436,0-17.176
				c18.052,0,36.083,0,54.146,0c0,5.714,0,11.426,0,17.176C40.921,40.488,22.878,40.488,4.805,40.488z M8.494,36.831
				c0.177,0,0.308,0,0.439,0c9.151,0,18.302,0.001,27.452-0.004c0.409,0,0.822-0.028,1.228-0.085
				c2.595-0.365,4.595-2.941,4.03-5.767c-0.493-2.472-2.485-4.015-5.052-4.015c-9.195,0.002-18.39,0.001-27.584,0.001
				c-0.169,0-0.337,0.015-0.513,0.022C8.494,30.288,8.494,33.532,8.494,36.831z M45.451,32.108c0.067,2.783,2.51,4.879,5.199,4.715
				c2.784-0.171,4.885-2.599,4.629-5.378c-0.237-2.584-2.567-4.795-5.575-4.421C47.215,27.334,45.309,29.559,45.451,32.108z"/>
			<path fill-rule="evenodd" clip-rule="evenodd" fill="#797A80" d="M58.957,2.387c0,5.719,0,11.433,0,17.188
				c-18.04,0-36.081,0-54.147,0c0-5.725,0-11.438,0-17.188C22.851,2.387,40.891,2.387,58.957,2.387z M8.495,15.898
				c0.177,0.008,0.306,0.02,0.436,0.02c9.104,0.001,18.208,0.001,27.313-0.003c0.425,0,0.853-0.023,1.273-0.078
				c2.751-0.354,4.671-3.02,4.127-5.778c-0.477-2.421-2.482-4.024-4.956-4.025C27.467,6.031,18.245,6.032,9.022,6.032
				c-0.171,0-0.343,0-0.527,0C8.495,9.329,8.495,12.587,8.495,15.898z M55.288,10.996c-0.023-2.76-2.102-4.882-4.901-4.951
				c-2.723-0.067-4.97,2.208-4.949,4.938c0.021,2.74,2.128,4.927,4.918,4.919C53.254,15.894,55.271,13.611,55.288,10.996z"/>
			<path fill-rule="evenodd" clip-rule="evenodd" fill="#797A80" d="M4.823,44.247c18.055,0,36.078,0,54.129,0
				c0,5.714,0,11.41,0,17.146c-18.026,0-36.059,0-54.129,0C4.823,55.704,4.823,49.997,4.823,44.247z M8.497,57.738
				c0.171,0,0.301,0,0.431,0c9.222-0.002,18.443,0,27.666-0.005c0.35,0,0.705-0.019,1.049-0.077c1.93-0.33,3.236-1.464,3.836-3.28
				c0.616-1.865,0.213-3.603-1.178-5.026c-0.998-1.022-2.25-1.446-3.692-1.443c-9.134,0.017-18.267,0.009-27.4,0.009
				c-0.23,0-0.461,0-0.71,0C8.497,51.193,8.497,54.437,8.497,57.738z M50.342,57.739c2.66,0.027,4.867-2.1,4.942-4.748
				c0.081-2.808-2.12-5.12-4.968-5.09c-2.822,0.03-4.885,2.26-4.877,4.957C45.445,55.557,47.636,57.731,50.342,57.739z"/>
			<path fill-rule="evenodd" clip-rule="evenodd" fill="#797A80" d="M-0.113-0.093c0.791,0,1.565,0,2.38,0
				c0,21.307,0,42.613,0,63.957c-0.765,0-1.551,0-2.38,0C-0.113,42.569-0.113,21.264-0.113-0.093z"/>
			<path fill-rule="evenodd" clip-rule="evenodd" fill="#797A80" d="M63.887,63.887c-0.803,0-1.58,0-2.391,0c0-21.322,0-42.627,0-64
				c0.39,0,0.78,0,1.172,0c0.394,0,0.789,0,1.219,0C63.887,21.238,63.887,42.542,63.887,63.887z"/>
			<path fill-rule="evenodd" clip-rule="evenodd" fill="#797A80" d="M10.997,29.449c0.411,0,0.773,0,1.165,0
				c0,1.631,0,3.237,0,4.875c-0.379,0-0.754,0-1.165,0C10.997,32.709,10.997,31.092,10.997,29.449z"/>
			<path fill-rule="evenodd" clip-rule="evenodd" fill="#797A80" d="M14.7,29.453c0.39,0,0.763,0,1.165,0c0,1.625,0,3.231,0,4.868
				c-0.38,0-0.755,0-1.165,0C14.7,32.712,14.7,31.097,14.7,29.453z"/>
			<path fill-rule="evenodd" clip-rule="evenodd" fill="#797A80" d="M14.692,8.529c0.402,0,0.767,0,1.166,0c0,1.617,0,3.225,0,4.873
				c-0.367,0-0.752,0-1.166,0C14.692,11.79,14.692,10.182,14.692,8.529z"/>
			<path fill-rule="evenodd" clip-rule="evenodd" fill="#797A80" d="M12.173,8.548c0,1.625,0,3.222,0,4.856
				c-0.386,0-0.772,0-1.185,0c0-1.608,0-3.216,0-4.856C11.375,8.548,11.749,8.548,12.173,8.548z"/>
			<path fill-rule="evenodd" clip-rule="evenodd" fill="#797A80" d="M15.858,55.25c-0.398,0-0.763,0-1.163,0c0-1.627,0-3.232,0-4.87
				c0.381,0,0.754,0,1.163,0C15.858,51.992,15.858,53.598,15.858,55.25z"/>
			<path fill-rule="evenodd" clip-rule="evenodd" fill="#797A80" d="M12.188,55.253c-0.43,0-0.794,0-1.193,0c0-1.622,0-3.24,0-4.851
				c0.041-0.022,0.064-0.046,0.09-0.048c1.104-0.042,1.104-0.042,1.104,1.074C12.188,52.688,12.188,53.946,12.188,55.253z"/>
		</g>
	</g>
</g>
</svg>
