<?xml version="1.0" encoding="utf-8"?>
<!-- Generator: Adobe Illustrator 16.0.3, SVG Export Plug-In . SVG Version: 6.00 Build 0)  -->
<!DOCTYPE svg PUBLIC "-//W3C//DTD SVG 1.1//EN" "http://www.w3.org/Graphics/SVG/1.1/DTD/svg11.dtd">
<svg version="1.1" id="Layer_1" xmlns="http://www.w3.org/2000/svg" xmlns:xlink="http://www.w3.org/1999/xlink" x="0px" y="0px"
	 width="32px" height="32px" viewBox="0.5 0.5 32 32" enable-background="new 0.5 0.5 32 32" xml:space="preserve">
<path d="M16.5,6c-10.714,0-15,10-15,10v1c0,0,4.286,10,15,10c10.714,0,15-10,15-10v-1C31.5,16,27.214,6,16.5,6z M21.13,9.963
	c0.229,0.466,0.37,0.983,0.37,1.537c0,1.933-1.567,3.5-3.5,3.5c-1.934,0-3.5-1.567-3.5-3.5c0-0.954,0.384-1.816,1.002-2.448
	C15.829,9.024,16.158,9,16.5,9C18.232,9,19.774,9.376,21.13,9.963z M3.943,16.5c0.777-1.234,3.131-4.509,7.051-6.294
	C9.46,11.663,8.5,13.717,8.5,16c0,4.412,3.573,7.99,7.984,7.999C9.207,23.99,5.034,18.231,3.943,16.5z M16.5,24L16.5,24
	c4.418,0,8-3.582,8-8c0-2.283-0.961-4.337-2.495-5.795c3.921,1.785,6.274,5.061,7.052,6.295C27.966,18.232,23.787,24,16.5,24z"/>
</svg>
