<?xml version="1.0" encoding="utf-8"?>
<!-- Generator: Adobe Illustrator 16.0.3, SVG Export Plug-In . SVG Version: 6.00 Build 0)  -->
<!DOCTYPE svg PUBLIC "-//W3C//DTD SVG 1.1//EN" "http://www.w3.org/Graphics/SVG/1.1/DTD/svg11.dtd">
<svg version="1.1" id="Layer_1" xmlns="http://www.w3.org/2000/svg" xmlns:xlink="http://www.w3.org/1999/xlink" x="0px" y="0px"
	 width="32px" height="32px" viewBox="0 0 32 32" enable-background="new 0 0 32 32" xml:space="preserve">
<path d="M25,0H13c0,0-2.938,0-2.938,3c0,0.436,0,1.131,0,2H3c0,0-2.938,0-2.938,3s0,18,0,21S3,32,3,32h16c0,0,3,0,3-3
	c0-0.337,0-1.051,0-2h7c0,0,3,0,3-3c0-1.988,0-17,0-17L25,0z M19,29H3.062V8h7c0,5.64,0,13.863,0,16c0,3,2.937,3,2.937,3h6V29z
	 M29,24H13.062V3H22v7h7V24z"/>
</svg>
