<?xml version="1.0" encoding="utf-8"?>
<!-- Generator: Adobe Illustrator 16.0.3, SVG Export Plug-In . SVG Version: 6.00 Build 0)  -->
<!DOCTYPE svg PUBLIC "-//W3C//DTD SVG 1.1//EN" "http://www.w3.org/Graphics/SVG/1.1/DTD/svg11.dtd">
<svg version="1.1" id="Layer_1" xmlns="http://www.w3.org/2000/svg" xmlns:xlink="http://www.w3.org/1999/xlink" x="0px" y="0px"
	 width="32px" height="32px" viewBox="0 0 32 32" enable-background="new 0 0 32 32" xml:space="preserve">
<g>
	<path d="M16,0C7.163,0,0,7.163,0,16s7.163,16,16,16s16-7.163,16-16S24.837,0,16,0z M16,29C8.832,29,3,23.168,3,16
		C3,8.832,8.832,3,16,3c7.168,0,13,5.832,13,13C29,23.168,23.168,29,16,29z"/>
	<path d="M22.272,14.993l-8.545-4.985C12.777,9.454,12,9.9,12,11v10c0,1.1,0.777,1.547,1.728,0.992l8.545-4.984
		C23.223,16.454,23.223,15.547,22.272,14.993z"/>
</g>
</svg>
