<?xml version="1.0" encoding="utf-8"?>
<!-- Generator: Adobe Illustrator 16.0.3, SVG Export Plug-In . SVG Version: 6.00 Build 0)  -->
<!DOCTYPE svg PUBLIC "-//W3C//DTD SVG 1.1//EN" "http://www.w3.org/Graphics/SVG/1.1/DTD/svg11.dtd">
<svg version="1.1" id="Layer_1" xmlns="http://www.w3.org/2000/svg" xmlns:xlink="http://www.w3.org/1999/xlink" x="0px" y="0px"
	 width="64px" height="64px" viewBox="0 0 64 64" enable-background="new 0 0 64 64" xml:space="preserve">
<g>
	<rect x="44.516" y="47.059" fill="#69FF5E" width="11.84" height="11.84"/>
	<rect x="44.516" y="25.932" fill="#69FF5E" width="11.84" height="11.839"/>
	<rect x="44.516" y="5.315" fill="#69FF5E" width="11.84" height="11.839"/>
	<rect x="7.723" y="5.193" fill="#69FF5E" width="35.591" height="11.744"/>
	<rect x="7.723" y="26.32" fill="#69FF5E" width="35.591" height="11.745"/>
	<rect x="7.723" y="46.766" fill="#69FF5E" width="35.591" height="11.744"/>
	<g>
		<g id="mQ9732_2_">
			<g>
				<path fill="#797A80" d="M4.918,40.602c0-5.734,0-11.436,0-17.176c18.052,0,36.083,0,54.146,0c0,5.714,0,11.426,0,17.176
					C41.034,40.602,22.992,40.602,4.918,40.602z M8.607,36.943c0.177,0,0.308,0,0.439,0c9.151,0,18.302,0.002,27.452-0.004
					c0.409,0,0.822-0.027,1.229-0.084c2.594-0.365,4.594-2.941,4.029-5.768c-0.492-2.472-2.484-4.016-5.052-4.015
					c-9.195,0.002-18.39,0.001-27.584,0.001c-0.169,0-0.337,0.015-0.513,0.022C8.607,30.401,8.607,33.646,8.607,36.943z
					 M45.564,32.222c0.066,2.783,2.51,4.879,5.199,4.715c2.783-0.172,4.885-2.6,4.629-5.378c-0.238-2.584-2.567-4.795-5.576-4.421
					C47.328,27.447,45.422,29.672,45.564,32.222z"/>
				<path fill="#797A80" d="M59.07,2.5c0,5.72,0,11.434,0,17.188c-18.041,0-36.081,0-54.147,0c0-5.725,0-11.438,0-17.188
					C22.964,2.5,41.004,2.5,59.07,2.5z M8.608,16.012c0.177,0.008,0.306,0.02,0.436,0.02c9.104,0.001,18.208,0.001,27.313-0.003
					c0.425,0,0.853-0.023,1.272-0.078c2.751-0.354,4.671-3.02,4.127-5.777c-0.478-2.421-2.481-4.024-4.956-4.025
					c-9.22-0.004-18.443-0.003-27.666-0.003c-0.171,0-0.343,0-0.527,0C8.608,9.442,8.608,12.7,8.608,16.012z M55.4,11.109
					c-0.022-2.76-2.101-4.882-4.9-4.951c-2.723-0.067-4.971,2.207-4.949,4.938c0.021,2.739,2.129,4.927,4.918,4.919
					C53.367,16.008,55.384,13.725,55.4,11.109z"/>
				<path fill="#797A80" d="M4.936,44.359c18.055,0,36.078,0,54.128,0c0,5.715,0,11.41,0,17.146c-18.025,0-36.059,0-54.128,0
					C4.936,55.816,4.936,50.109,4.936,44.359z M8.61,57.852c0.171,0,0.301,0,0.431,0c9.222-0.002,18.443,0,27.666-0.004
					c0.35,0,0.705-0.02,1.049-0.078c1.93-0.33,3.236-1.463,3.836-3.279c0.616-1.865,0.213-3.604-1.178-5.026
					c-0.998-1.022-2.25-1.446-3.691-1.442c-9.135,0.017-18.268,0.008-27.401,0.008c-0.23,0-0.461,0-0.71,0
					C8.61,51.307,8.61,54.55,8.61,57.852z M50.455,57.854c2.66,0.026,4.867-2.101,4.941-4.748c0.082-2.809-2.119-5.121-4.967-5.09
					c-2.822,0.029-4.886,2.26-4.878,4.957C45.559,55.67,47.749,57.846,50.455,57.854z"/>
				<path fill="#797A80" d="M0,0.021c0.791,0,1.565,0,2.38,0c0,21.307,0,42.612,0,63.956c-0.765,0-1.551,0-2.38,0
					C0,42.684,0,21.377,0,0.021z"/>
				<path fill="#797A80" d="M64,64c-0.803,0-1.58,0-2.391,0c0-21.322,0-42.627,0-64c0.39,0,0.779,0,1.172,0C63.175,0,63.57,0,64,0
					C64,21.352,64,42.654,64,64z"/>
				<path fill="#505054" d="M11.11,29.562c0.411,0,0.773,0,1.165,0c0,1.631,0,3.236,0,4.874c-0.379,0-0.754,0-1.165,0
					C11.11,32.822,11.11,31.206,11.11,29.562z"/>
				<path fill="#505054" d="M14.813,29.566c0.39,0,0.763,0,1.165,0c0,1.625,0,3.23,0,4.868c-0.38,0-0.755,0-1.165,0
					C14.813,32.826,14.813,31.21,14.813,29.566z"/>
				<path fill="#505054" d="M14.806,8.643c0.402,0,0.767,0,1.166,0c0,1.617,0,3.225,0,4.873c-0.367,0-0.752,0-1.166,0
					C14.806,11.903,14.806,10.296,14.806,8.643z"/>
				<path fill="#505054" d="M12.286,8.661c0,1.625,0,3.223,0,4.856c-0.386,0-0.772,0-1.185,0c0-1.607,0-3.216,0-4.856
					C11.488,8.661,11.862,8.661,12.286,8.661z"/>
				<path fill="#505054" d="M15.972,55.363c-0.398,0-0.763,0-1.163,0c0-1.627,0-3.232,0-4.87c0.381,0,0.754,0,1.163,0
					C15.972,52.105,15.972,53.711,15.972,55.363z"/>
				<path fill="#505054" d="M12.302,55.366c-0.43,0-0.794,0-1.193,0c0-1.622,0-3.24,0-4.851c0.041-0.022,0.064-0.047,0.09-0.049
					c1.104-0.042,1.104-0.042,1.104,1.074C12.302,52.801,12.302,54.061,12.302,55.366z"/>
			</g>
		</g>
	</g>
</g>
</svg>
