<?xml version="1.0" encoding="utf-8"?>
<!-- Generator: Adobe Illustrator 16.0.3, SVG Export Plug-In . SVG Version: 6.00 Build 0)  -->
<!DOCTYPE svg PUBLIC "-//W3C//DTD SVG 1.1//EN" "http://www.w3.org/Graphics/SVG/1.1/DTD/svg11.dtd">
<svg version="1.1" id="Layer_1" xmlns="http://www.w3.org/2000/svg" xmlns:xlink="http://www.w3.org/1999/xlink" x="0px" y="0px"
	 width="32px" height="32px" viewBox="0 0 32 32" enable-background="new 0 0 32 32" xml:space="preserve">
<g>
	<path d="M28.568,5.665c0-0.007-0.003-0.014-0.003-0.022c-0.002-0.102-0.015-0.202-0.037-0.299
		c-0.004-0.018-0.009-0.036-0.014-0.054c-0.026-0.098-0.062-0.193-0.107-0.282c-0.005-0.01-0.012-0.019-0.017-0.028
		c-0.047-0.086-0.103-0.167-0.167-0.243c-0.008-0.009-0.014-0.019-0.021-0.027c-0.067-0.076-0.145-0.143-0.229-0.204
		C27.965,4.5,27.959,4.491,27.95,4.484c-0.011-0.007-0.023-0.012-0.034-0.02c-0.013-0.008-0.024-0.019-0.037-0.026l-6.942-4.229
		C20.709,0.07,20.45,0,20.189,0c-0.17,0-0.341,0.03-0.504,0.091L4.364,5.837c-0.068,0.025-0.132,0.056-0.194,0.09
		C4.168,5.928,4.166,5.928,4.165,5.929c-0.003,0.002-0.006,0.006-0.01,0.008C3.94,6.06,3.763,6.235,3.638,6.445
		C3.634,6.451,3.63,6.456,3.626,6.462C3.568,6.561,3.525,6.668,3.492,6.779C3.489,6.792,3.484,6.804,3.481,6.816
		c-0.02,0.075-0.035,0.151-0.043,0.23C3.435,7.082,3.436,7.117,3.436,7.153c0,0.01-0.003,0.019-0.003,0.029v19.153
		c0,0.501,0.261,0.966,0.689,1.227l6.942,4.229c0.009,0.006,0.021,0.008,0.03,0.014c0.102,0.059,0.208,0.106,0.319,0.138
		c0.014,0.004,0.028,0.006,0.042,0.01C11.571,31.981,11.69,32,11.81,32c0,0,0,0,0,0l0,0h0c0.107,0,0.214-0.017,0.319-0.04
		c0.03-0.008,0.059-0.017,0.088-0.024c0.032-0.011,0.065-0.016,0.096-0.027l15.321-5.745c0.561-0.21,0.933-0.746,0.933-1.345V5.665z
		"/>
	<polygon fill="#E3E3E3" points="27.132,5.665 11.81,11.411 4.868,7.182 20.189,1.436 	"/>
	<polygon fill="#BABABA" points="27.132,24.818 11.81,30.563 11.81,11.411 27.132,5.665 	"/>
	<polygon fill="#C9C9C9" points="11.811,30.563 4.868,26.335 4.868,7.182 11.81,11.411 	"/>
	<polygon points="10.933,18.034 5.427,14.683 5.427,13.086 10.933,16.438 	"/>
	<polygon points="10.933,26.253 5.427,22.901 5.427,22.104 10.933,25.455 	"/>
	<polygon points="10.933,27.849 5.427,24.497 5.427,23.698 10.933,27.05 	"/>
	<polygon points="10.933,24.816 5.427,21.465 5.427,20.666 10.933,24.018 	"/>
	<polygon fill="#37FF00" points="7.581,13.166 5.427,11.81 5.427,10.213 7.581,11.57 	"/>
	<polygon fill="#37FF00" points="10.853,15.161 8.699,13.805 8.699,12.208 10.853,13.565 	"/>
	<path d="M8.858,18.951c0.056,0.551-0.291,0.998-0.776,0.998s-0.923-0.447-0.979-0.998s0.291-0.997,0.776-0.997
		C8.363,17.954,8.801,18.4,8.858,18.951z"/>
</g>
</svg>
