<?xml version="1.0" encoding="utf-8"?>
<!-- Generator: Adobe Illustrator 16.0.3, SVG Export Plug-In . SVG Version: 6.00 Build 0)  -->
<!DOCTYPE svg PUBLIC "-//W3C//DTD SVG 1.1//EN" "http://www.w3.org/Graphics/SVG/1.1/DTD/svg11.dtd">
<svg version="1.1" id="Layer_1" xmlns="http://www.w3.org/2000/svg" xmlns:xlink="http://www.w3.org/1999/xlink" x="0px" y="0px"
	 width="64px" height="64px" viewBox="0 0 64 64" enable-background="new 0 0 64 64" xml:space="preserve">
<g>
	<rect x="44.516" y="47.059" fill="#4D4E52" width="11.839" height="11.839"/>
	<rect x="44.516" y="25.932" fill="#4D4E52" width="11.839" height="11.839"/>
	<rect x="44.516" y="5.315" fill="#4D4E52" width="11.839" height="11.839"/>
	<rect x="7.723" y="5.193" fill-rule="evenodd" clip-rule="evenodd" fill="#4D4E52" width="35.591" height="11.744"/>
	<rect x="7.723" y="26.32" fill-rule="evenodd" clip-rule="evenodd" fill="#4D4E52" width="35.591" height="11.744"/>
	<rect x="7.723" y="46.766" fill-rule="evenodd" clip-rule="evenodd" fill="#4D4E52" width="35.591" height="11.744"/>
	<g>
		<g id="mQ9732_2_">
			<g>
				<path fill-rule="evenodd" clip-rule="evenodd" fill="#797A80" d="M4.918,40.602c0-5.735,0-11.436,0-17.176
					c18.052,0,36.083,0,54.146,0c0,5.714,0,11.426,0,17.176C41.034,40.602,22.992,40.602,4.918,40.602z M8.607,36.944
					c0.177,0,0.308,0,0.439,0c9.151,0,18.302,0.001,27.452-0.004c0.409,0,0.822-0.028,1.228-0.085
					c2.595-0.365,4.595-2.941,4.03-5.767c-0.493-2.472-2.485-4.016-5.052-4.015c-9.195,0.002-18.39,0.001-27.584,0.001
					c-0.169,0-0.337,0.015-0.513,0.022C8.607,30.401,8.607,33.646,8.607,36.944z M45.564,32.222c0.067,2.783,2.51,4.879,5.199,4.715
					c2.784-0.171,4.885-2.599,4.629-5.378c-0.237-2.584-2.567-4.795-5.575-4.421C47.328,27.447,45.422,29.672,45.564,32.222z"/>
				<path fill-rule="evenodd" clip-rule="evenodd" fill="#797A80" d="M59.07,2.5c0,5.72,0,11.434,0,17.188
					c-18.04,0-36.081,0-54.147,0c0-5.725,0-11.438,0-17.188C22.964,2.5,41.004,2.5,59.07,2.5z M8.608,16.012
					c0.177,0.008,0.306,0.02,0.436,0.02c9.104,0.001,18.208,0.001,27.313-0.003c0.425,0,0.853-0.023,1.273-0.078
					c2.751-0.354,4.671-3.02,4.127-5.777c-0.477-2.421-2.482-4.024-4.956-4.025C27.581,6.145,18.358,6.146,9.135,6.146
					c-0.171,0-0.343,0-0.527,0C8.608,9.442,8.608,12.7,8.608,16.012z M55.401,11.109C55.378,8.349,53.3,6.227,50.5,6.158
					c-2.723-0.067-4.97,2.207-4.949,4.938c0.021,2.739,2.128,4.927,4.918,4.919C53.367,16.008,55.384,13.725,55.401,11.109z"/>
				<path fill-rule="evenodd" clip-rule="evenodd" fill="#797A80" d="M4.936,44.36c18.055,0,36.078,0,54.129,0
					c0,5.714,0,11.41,0,17.146c-18.026,0-36.059,0-54.129,0C4.936,55.817,4.936,50.11,4.936,44.36z M8.61,57.852
					c0.171,0,0.301,0,0.431,0c9.222-0.002,18.443,0,27.666-0.005c0.35,0,0.705-0.019,1.049-0.077c1.93-0.33,3.236-1.464,3.836-3.28
					c0.616-1.865,0.213-3.603-1.178-5.026c-0.998-1.022-2.25-1.446-3.692-1.443c-9.134,0.017-18.267,0.009-27.4,0.009
					c-0.23,0-0.461,0-0.71,0C8.61,51.307,8.61,54.55,8.61,57.852z M50.455,57.853c2.66,0.027,4.867-2.1,4.942-4.748
					c0.081-2.808-2.12-5.12-4.968-5.09c-2.822,0.03-4.885,2.26-4.877,4.957C45.559,55.67,47.749,57.845,50.455,57.853z"/>
				<path fill-rule="evenodd" clip-rule="evenodd" fill="#797A80" d="M0,0.021c0.791,0,1.565,0,2.38,0c0,21.307,0,42.612,0,63.956
					c-0.765,0-1.551,0-2.38,0C0,42.683,0,21.377,0,0.021z"/>
				<path fill-rule="evenodd" clip-rule="evenodd" fill="#797A80" d="M64,64c-0.803,0-1.58,0-2.391,0c0-21.322,0-42.627,0-64
					c0.39,0,0.78,0,1.172,0C63.175,0,63.57,0,64,0C64,21.352,64,42.655,64,64z"/>
				<path fill-rule="evenodd" clip-rule="evenodd" fill="#797A80" d="M11.11,29.562c0.411,0,0.773,0,1.165,0
					c0,1.631,0,3.236,0,4.874c-0.379,0-0.754,0-1.165,0C11.11,32.822,11.11,31.206,11.11,29.562z"/>
				<path fill-rule="evenodd" clip-rule="evenodd" fill="#797A80" d="M14.813,29.566c0.39,0,0.763,0,1.165,0c0,1.625,0,3.23,0,4.867
					c-0.38,0-0.755,0-1.165,0C14.813,32.826,14.813,31.21,14.813,29.566z"/>
				<path fill-rule="evenodd" clip-rule="evenodd" fill="#797A80" d="M14.806,8.643c0.402,0,0.767,0,1.166,0
					c0,1.617,0,3.225,0,4.873c-0.367,0-0.752,0-1.166,0C14.806,11.903,14.806,10.296,14.806,8.643z"/>
				<path fill-rule="evenodd" clip-rule="evenodd" fill="#797A80" d="M12.286,8.661c0,1.625,0,3.223,0,4.856
					c-0.386,0-0.772,0-1.185,0c0-1.607,0-3.216,0-4.856C11.488,8.661,11.862,8.661,12.286,8.661z"/>
				<path fill-rule="evenodd" clip-rule="evenodd" fill="#797A80" d="M15.972,55.363c-0.398,0-0.763,0-1.163,0
					c0-1.627,0-3.232,0-4.87c0.381,0,0.754,0,1.163,0C15.972,52.105,15.972,53.711,15.972,55.363z"/>
				<path fill-rule="evenodd" clip-rule="evenodd" fill="#797A80" d="M12.302,55.366c-0.43,0-0.794,0-1.193,0
					c0-1.622,0-3.24,0-4.851c0.041-0.022,0.064-0.046,0.09-0.048c1.104-0.042,1.104-0.042,1.104,1.074
					C12.302,52.801,12.302,54.06,12.302,55.366z"/>
			</g>
		</g>
	</g>
</g>
<g>
	<circle fill-rule="evenodd" clip-rule="evenodd" fill="#FF0032" cx="51" cy="51" r="13"/>
	<path fill="#FFFFFF" d="M46.201,57.299c-0.384,0-0.768-0.146-1.061-0.439c-0.586-0.586-0.586-1.535,0-2.121l9.598-9.598
		c0.586-0.586,1.535-0.586,2.121,0s0.586,1.535,0,2.121l-9.598,9.598C46.969,57.152,46.585,57.299,46.201,57.299z"/>
	<path fill="#FFFFFF" d="M55.799,57.299c-0.384,0-0.768-0.146-1.061-0.439l-9.598-9.598c-0.586-0.586-0.586-1.535,0-2.121
		s1.535-0.586,2.121,0l9.598,9.598c0.586,0.586,0.586,1.535,0,2.121C56.566,57.152,56.183,57.299,55.799,57.299z"/>
</g>
</svg>
