<?xml version="1.0" encoding="utf-8"?>
<!-- Generator: Adobe Illustrator 16.0.3, SVG Export Plug-In . SVG Version: 6.00 Build 0)  -->
<!DOCTYPE svg PUBLIC "-//W3C//DTD SVG 1.1//EN" "http://www.w3.org/Graphics/SVG/1.1/DTD/svg11.dtd">
<svg version="1.1" id="Layer_1" xmlns="http://www.w3.org/2000/svg" xmlns:xlink="http://www.w3.org/1999/xlink" x="0px" y="0px"
	 width="32px" height="32px" viewBox="0 0 32 32" enable-background="new 0 0 32 32" xml:space="preserve">
<g>
	<path d="M29,9h-3.668l4.667-7L27,0l-6,9l-6-9l-2.999,2l4.667,7H3c0,0-3,0-3,3s0,14,0,17s3,3,3,3h26c0,0,3,0,3-3s0-14,0-17
		S29,9,29,9z M22,29H3V12h19V29z M27,24c-1.104,0-2-0.896-2-2c0-1.105,0.896-2,2-2c1.104,0,2,0.895,2,2C29,23.104,28.104,24,27,24z
		 M27,18c-1.104,0-2-0.896-2-2c0-1.105,0.896-2,2-2c1.104,0,2,0.895,2,2C29,17.104,28.104,18,27,18z"/>
	<polygon points="18,21 10,16 10,26 	"/>
</g>
</svg>
