<?xml version="1.0" encoding="utf-8"?>
<!-- Generator: Adobe Illustrator 16.0.3, SVG Export Plug-In . SVG Version: 6.00 Build 0)  -->
<!DOCTYPE svg PUBLIC "-//W3C//DTD SVG 1.1//EN" "http://www.w3.org/Graphics/SVG/1.1/DTD/svg11.dtd">
<svg version="1.1" id="Layer_1" xmlns="http://www.w3.org/2000/svg" xmlns:xlink="http://www.w3.org/1999/xlink" x="0px" y="0px"
	 width="400px" height="225px" viewBox="0 0 400 225" enable-background="new 0 0 400 225" xml:space="preserve">
<rect fill="#F2F3F7" width="400" height="225"/>
<g>
	<path fill="#C6CACC" d="M200,64.5c-26.511,0-48,21.491-48,48c0,26.51,21.489,48,48,48s48-21.49,48-48
		C248,85.991,226.511,64.5,200,64.5z M200,151.5c-21.504,0-39-17.494-39-39c0-21.505,17.496-39,39-39s39,17.495,39,39
		C239,134.006,221.504,151.5,200,151.5z"/>
	<path fill="#C6CACC" d="M218.472,110.889l-27.938-17.777c-1.392-0.886-2.531-0.261-2.531,1.389v36c0,1.649,1.14,2.275,2.531,1.389
		l27.938-17.777C219.863,113.225,219.863,111.775,218.472,110.889z"/>
</g>
</svg>
