<?xml version="1.0" standalone="no"?>
<!DOCTYPE svg PUBLIC "-//W3C//DTD SVG 1.1//EN" "http://www.w3.org/Graphics/SVG/1.1/DTD/svg11.dtd" >
<svg xmlns="http://www.w3.org/2000/svg">
<metadata>Generated by IcoMoon</metadata>
<defs>
<font id="icomoon" horiz-adv-x="1024">
<font-face units-per-em="1024" ascent="960" descent="-64" />
<missing-glyph horiz-adv-x="1024" />
<glyph unicode="&#x20;" horiz-adv-x="512" d="" />
<glyph unicode="&#xe8e6;" glyph-name="plus_thin" d="M496 960c-273.92 0-496-222.080-496-496 0-273.952 222.080-496 496-496 273.952 0 496 222.048 496 496 0 273.92-222.048 496-496 496zM496 0c-256.256 0-464 207.744-464 464s207.744 464 464 464 464-207.744 464-464-207.744-464-464-464zM512 480v336h-32v-336h-320v-32h320v-336h32v336h352v32z" />
<glyph unicode="&#xe900;" glyph-name="look" d="M512 784c-342.848 0-480-320-480-320v-32c0 0 137.152-320 480-320s480 320 480 320v32c0 0-137.152 320-480 320zM660.16 657.184c7.328-14.912 11.84-31.456 11.84-49.184 0-61.856-50.144-112-112-112-61.888 0-112 50.144-112 112 0 30.528 12.288 58.112 32.064 78.336 10.464 0.896 20.992 1.664 31.936 1.664 55.424 0 104.768-12.032 148.16-30.816zM110.176 448c24.864 39.488 100.192 144.288 225.632 201.408-49.088-46.624-79.808-112.352-79.808-185.408 0-141.184 114.336-255.68 255.488-255.968-232.864 0.288-366.4 184.576-401.312 239.968zM512 208v0c141.376 0 256 114.624 256 256 0 73.056-30.752 138.784-79.84 185.44 125.472-57.12 200.768-161.952 225.664-201.44-34.912-55.424-168.64-240-401.824-240z" />
<glyph unicode="&#xe901;" glyph-name="check" d="M768 960h-512c-140.8 0-256-115.2-256-256v-512c0-140.8 115.2-256 256-256h512c140.8 0 256 115.2 256 256v512c0 140.8-115.2 256-256 256zM928 192c0-88.224-71.776-160-160-160h-512c-88.224 0-160 71.776-160 160v512c0 88.224 71.776 160 160 160h512c88.224 0 160-71.776 160-160v-512zM408.16 190.176c-1.216 0-2.432 0.032-3.648 0.096-22.464 1.024-43.456 11.424-57.824 28.704l-148 177.824c-28.256 33.984-23.648 84.416 10.304 112.672 33.952 28.288 84.416 23.68 112.672-10.304l91.936-110.432 293.664 293.632c31.264 31.264 81.888 31.264 113.12 0 31.264-31.232 31.264-81.888 0-113.12l-355.648-355.616c-15.040-15.040-35.392-23.456-56.576-23.456z" />
<glyph unicode="&#xe902;" glyph-name="paragraph" d="M318.016 256h225.984c0 0 320 0 320 320s-320 320-320 320h-416v-896h190.016v256zM544 448h-225.984v256h225.984c0 0 129.984 0 129.984-128s-129.984-128-129.984-128z" />
<glyph unicode="&#xe903;" glyph-name="fontsize_up" d="M736 0h192l-336 896h-256l-336-896h192l60 160h424l60-160zM312 320l152 405.344 152-405.344h-304zM672 800h352v-96h-352v96zM800 928h96v-352h-96v352z" />
<glyph unicode="&#xe904;" glyph-name="clear_style" d="M480 608c-342.848 0-480-320-480-320v-32c0 0 137.152-320 480-320s480 320 480 320v32c0 0-137.152 320-480 320zM628.16 481.216c7.328-14.912 11.84-31.456 11.84-49.216 0-61.856-50.112-112-112-112s-112 50.144-112 112c0 30.56 12.288 58.112 32.064 78.368 10.464 0.896 20.992 1.664 31.936 1.664 55.424-0.032 104.736-12.032 148.16-30.816zM480 32c-233.216 0-366.88 184.576-401.824 240 24.896 39.488 100.224 144.32 225.696 201.44-49.12-46.624-79.872-112.384-79.872-185.44 0-141.376 114.624-256 256-256s256 114.624 256 256c0 73.056-30.752 138.816-79.84 185.44 125.472-57.152 200.768-161.952 225.664-201.44-34.912-55.424-168.64-240-401.824-240zM1024 640l-64-64-128 128-128-128-64 64 128 128-128 128 64 64 128-128 128 128 64-64-128-128 128-128z" />
<glyph unicode="&#xe905;" glyph-name="fontsize_down" d="M736 0h192l-336 896h-256l-336-896h192l60 160h424l60-160zM312 320l152 405.344 152-405.344h-304zM672 800h352v-96h-352v96z" />
<glyph unicode="&#xe906;" glyph-name="font" d="M784-16h192l-336 896h-256l-336-896h192l60 160h424l60-160zM360 304l152 405.344 152-405.344h-304z" />
<glyph unicode="&#xe907;" glyph-name="fontsize" d="M865.088-64h158.912l-278.048 741.504h-211.872l-278.080-741.504h158.912l49.664 132.448h350.912l49.6-132.448zM514.208 200.8l125.792 335.488 125.792-335.456h-251.584zM367.424 960h-158.848l-208.576-556.128h119.168l37.28 99.328h243.808l69.248 184.672-102.080 272.128zM288 854.080l94.336-251.584h-188.672l94.336 251.584z" />
<glyph unicode="&#xe908;" glyph-name="movefile_outline" d="M800 960h-384c0 0-94.016 0-94.016-96 0-13.952 0-36.192 0-64h-225.984c0 0-94.016 0-94.016-96s0-576 0-672 94.016-96 94.016-96h512c0 0 96 0 96 96 0 10.784 0 33.632 0 64h224c0 0 96 0 96 96 0 63.616 0 544 0 544l-224 224zM608 32h-510.016v672h224c0-180.48 0-443.616 0-512 0-96 93.984-96 93.984-96h192v-64zM928 192h-510.016v672h286.016v-224h224v-448z" />
<glyph unicode="&#xe90c;" glyph-name="minus_thin" d="M496 960c-273.92 0-496-222.080-496-496 0-273.952 222.080-496 496-496 273.952 0 496 222.048 496 496 0 273.92-222.048 496-496 496zM496 0c-256.256 0-464 207.744-464 464s207.744 464 464 464 464-207.744 464-464-207.744-464-464-464zM160 480h704v-32h-704v32z" />
<glyph unicode="&#xe90e;" glyph-name="false_thin" d="M512 960c-282.752 0-512-229.28-512-512 0-282.784 229.248-512 512-512 282.784 0 512 229.216 512 512 0 282.72-229.216 512-512 512zM512-32c-265.088 0-480 214.912-480 480s214.912 480 480 480 480-214.912 480-480-214.912-480-480-480zM287.991 704.011l479.991-479.991-31.995-31.995-479.991 479.991 31.995 31.995zM768.011 672.009l-479.991-479.991-31.995 31.995 479.991 479.991 31.995-31.995z" />
<glyph unicode="&#xe90f;" glyph-name="done_thin" d="M512 960c-282.752 0-512-229.28-512-512 0-282.784 229.248-512 512-512 282.784 0 512 229.216 512 512 0 282.72-229.216 512-512 512zM512-32c-265.088 0-480 214.912-480 480s214.912 480 480 480 480-214.912 480-480-214.912-480-480-480zM224.011 512.003l256.004-256.004-31.995-31.995-256.004 256.004 31.995 31.995zM831.989 608.026l-384.006-384.006-31.995 31.995 384.006 384.006 31.995-31.995z" />
<glyph unicode="&#xe910;" glyph-name="false_bold" d="M512 960c-282.784 0-512-229.248-512-512 0-282.784 229.216-512 512-512 282.752 0 512 229.216 512 512 0 282.752-229.248 512-512 512zM512 32c-229.408 0-416 186.592-416 416s186.592 416 416 416 416-186.592 416-416-186.592-416-416-416zM704 704l-192-192-192 192-64-64 192-192-192-192 64-64 192 192 192-192 64 64-192 192 192 192z" />
<glyph unicode="&#xe911;" glyph-name="logout_bold" d="M864 112.48v94.976h-96v-96l-608 0.064v671.904l608 0.032v-94.912h96v94.912c0-10.176 0.064-88.96 0.064 1.056 0 96.032-96.064 94.944-96.064 94.944v0h-608c0 0-96 0-96-96s0-575.936 0-671.936 96-96 96-96l608.064-0.064c0 0 96 0 96 96 0 90.016-0.064 11.296-0.064 1.024zM512 655.456v-160h-256v-95.936h256v-160l448 191.936v32z" />
<glyph unicode="&#xe912;" glyph-name="login_bold" d="M864 113.088v94.976h-96v-96l-608-0.064v672l608-0.032v-95.968h96v94.912c0-10.176 0.064-88.96 0.064 1.056 0 96.032-96.064 96.032-96.064 96.032v0h-608c0 0-96 0-96-96s0-576 0-672 96-96 96-96l608.064 0.064c0 0 96 0 96 96 0 89.984-0.064 11.264-0.064 1.024zM256 462.912v-32l448-191.936v160h256v95.936h-256v160z" />
<glyph unicode="&#xe913;" glyph-name="home_bold" d="M528 880h-32l-448-448v-32h128v-384h672v384.032l0.032-0.032h127.968v32l-448 448zM752 112h-160v256h-160v-256h-160v384l224 224h32l224-224v-384z" />
<glyph unicode="&#xe914;" glyph-name="caution_bold" d="M512 960c-282.784 0-512-229.248-512-512 0-282.784 229.216-512 512-512 282.752 0 512 229.216 512 512 0 282.752-229.248 512-512 512zM512 32c-229.76 0-416 186.24-416 416 0 229.728 186.24 416 416 416s416-186.272 416-416c0-229.76-186.24-416-416-416zM448 768h128v-384h-128v384zM608 224c0-53.019-42.981-96-96-96s-96 42.981-96 96c0 53.019 42.981 96 96 96s96-42.981 96-96z" />
<glyph unicode="&#xe915;" glyph-name="coin_bold" d="M762.24 628.544l5.76 11.456v144c0 61.856-157.6 112-352 112s-352-50.144-352-112v-144l32-64c0 0 35.712-35.584 160-53.664v-138.336l11.424-22.88c-84.576-20.448-139.424-52.672-139.424-89.12v-144l32-64c0 0 64-64 320-64s320 64 320 64l32 64v144c0 2.176-0.672 4.448-1.024 6.592 73.664 18.432 97.024 41.408 97.024 41.408l32 64v144c0 44.224-80.736 82.336-197.76 100.544zM128 760c0 39.776 128.96 72 288 72 159.072 0 288-32.224 288-72s-128.928-72-288-72c-159.040 0-288 32.224-288 72zM768 248c0-39.744-128.928-72-288-72-159.040 0-288 32.256-288 72 0 23.744 46.272 44.736 117.344 57.952 35.232-18.88 120.224-49.952 298.656-49.952 60.8 0 110.528 3.68 151.36 9.184 5.44-5.536 8.64-11.232 8.64-17.184zM608 432c-159.040 0-288 32.224-288 72 0 3.808 1.536 7.488 3.808 11.168 27.584-1.984 58.048-3.168 92.192-3.168 205.536 0 287.2 41.216 311.36 57.472 99.392-11.36 168.64-36.352 168.64-65.472 0-39.776-128.928-72-288-72z" />
<glyph unicode="&#xe916;" glyph-name="lock" d="M146.286 411.429h146.286v182.857c0 121.015 98.414 219.429 219.429 219.429s219.429-98.414 219.429-219.429v-73.143h146.286v73.143c0 201.984-163.767 365.714-365.714 365.714-201.984 0-365.714-163.73-365.714-365.714v-182.857zM109.714 448v-512h804.571v512h-804.571zM585.143 210.725v-165.010h-109.714v165.010c-22.089 16.677-36.571 42.898-36.571 72.704 0 50.505 40.923 91.429 91.429 91.429s91.429-40.923 91.429-91.429c0-29.806-14.482-56.027-36.571-72.704z" />
<glyph unicode="&#xe917;" glyph-name="user_bold" d="M804.571 338.286c-41.874 0-75.63 19.419-92.891 31.488 78.519 60.197 129.463 154.661 129.463 261.083 0 181.504-147.639 329.143-329.143 329.143s-329.143-147.675-329.143-329.143c0-106.386 50.981-200.887 129.536-261.083-17.152-12.142-50.981-31.488-92.965-31.488-142.519 0-219.429-113.079-219.429-219.429v-182.857h1024v182.857c0 106.35-76.946 219.429-219.429 219.429zM512 850.286c121.125 0 219.429-98.267 219.429-219.429 0-121.198-98.304-219.429-219.429-219.429-121.161 0-219.429 98.231-219.429 219.429 0 121.161 98.267 219.429 219.429 219.429zM914.286 45.714h-804.571v73.143c0 0 0 109.714 109.714 109.714s182.857 73.143 182.857 73.143h219.429c0 0 73.143-73.143 182.857-73.143s109.714-109.714 109.714-109.714v-73.143z" />
<glyph unicode="&#xe918;" glyph-name="orders_bold" d="M292.571 448h438.857v-109.714h-438.857v109.714zM292.571 630.857h438.857v-109.714h-438.857v109.714zM292.571 265.143h438.857v-109.714h-438.857v109.714zM841.143 886.857h-109.714l-36.571 73.143h-365.714l-36.571-73.143h-109.714c0 0-109.714 0-109.714-109.714s0-621.714 0-731.429 109.714-109.714 109.714-109.714h658.286c0 0 109.714 0 109.714 109.714s0 621.714 0 731.429-109.714 109.714-109.714 109.714zM512 901.998c28.562 0 51.712-23.15 51.712-51.712s-23.15-51.749-51.712-51.749-51.712 23.15-51.712 51.749 23.15 51.712 51.712 51.712zM841.143 45.714h-658.286v731.429h109.714v-73.143h438.857v73.143h109.714v-731.429z" />
<glyph unicode="&#xe919;" glyph-name="false_solid" d="M512 960c-282.752 0-512-229.28-512-512 0-282.784 229.248-512 512-512 282.784 0 512 229.216 512 512 0 282.72-229.216 512-512 512zM768 224l-32-31.968-224 223.968-224-224-32 32 224 224-224 224 32 32 224-224 224 224 32-32-224-224 224-224z" />
<glyph unicode="&#xe91a;" glyph-name="done_solid" d="M512 960c-282.752 0-512-229.28-512-512 0-282.784 229.248-512 512-512 282.784 0 512 229.216 512 512 0 282.72-229.216 512-512 512zM448 224l-256 256 32 32 224-224 352 352 32-32-384-384z" />
<glyph unicode="&#xe91b;" glyph-name="search_bold" d="M1024.010 32.012l-269.77 269.77c48.946 68.22 77.774 151.85 77.774 242.218 0 229.734-186.25 416-416 416-229.734 0-416-186.266-416-416 0-229.75 186.266-416 416-416 90.374 0 174.006 28.832 242.23 77.782l269.768-269.768 95.998 95.998zM128.014 544c0 159.046 128.954 288 288 288 159.062 0 288-128.954 288-288 0-159.062-128.938-288-288-288-159.046 0-288 128.938-288 288z" />
<glyph unicode="&#xe91c;" glyph-name="ok_solid_bold" d="M512 944c-273.952 0-496-222.080-496-496 0-273.952 222.048-496 496-496s496 222.048 496 496c0 273.92-222.048 496-496 496zM496 272l-64-64-224 256 64 64 164.256-187.712 315.744 315.712 64-64-320-320z" />
<glyph unicode="&#xe91d;" glyph-name="mobi_bold" d="M170.667 857.6c0-68.267 0-750.933 0-819.2 0-102.4 102.4-102.4 102.4-102.4h477.867c0 0 102.4 0 102.4 102.4 0 198.144 0 762.982 0 819.2 0 102.4-102.4 102.4-102.4 102.4h-477.867c0 0-102.4 0-102.4-102.4zM546.133 4.267c-34.133 0-34.133 0-68.267 0s-34.133 34.133-34.133 34.133v34.133c0 0-0.034 34.133 34.133 34.133 18.227 0 46.182 0 68.267 0 34.133 0 34.133-34.133 34.133-34.133v-34.133c0 0 0-34.133-34.133-34.133zM750.933 174.933h-477.867v682.667h477.867v-682.667z" />
<glyph unicode="&#xe91e;" glyph-name="cart_bold" d="M960 672v96h-780.32l-19.68 128h-96l64-416c0-106.016 85.984-192 192-192v0.032l640-0.032v96h-640c-53.024 0-96 42.976-96 96h736v96h-750.784l-14.752 96h765.536zM384 112.032c0-61.856-50.144-112-112-112s-112 50.144-112 112c0 61.856 50.144 112 112 112s112-50.144 112-112zM896 112.032c0-61.856-50.144-112-112-112s-112 50.144-112 112c0 61.856 50.144 112 112 112s112-50.144 112-112z" />
<glyph unicode="&#xe91f;" glyph-name="more_bold" d="M512 960c-282.784 0-512-229.248-512-512s229.248-512 512-512 512 229.248 512 512c0 282.752-229.216 512-512 512zM511.968 32c-229.728 0-415.968 186.24-415.968 416s186.24 416 416 416c229.76 0 416-186.24 416-416s-186.272-416-416.032-416zM352 448c0-53.019-42.981-96-96-96s-96 42.981-96 96c0 53.019 42.981 96 96 96s96-42.981 96-96zM608 448c0-53.019-42.981-96-96-96s-96 42.981-96 96c0 53.019 42.981 96 96 96s96-42.981 96-96zM864 448c0-53.019-42.981-96-96-96s-96 42.981-96 96c0 53.019 42.981 96 96 96s96-42.981 96-96z" />
<glyph unicode="&#xe920;" glyph-name="write_bold" d="M829.797 518.621v-459.039h-706.215v706.215h459.039l105.932 105.932h-564.972c0 0-105.932 0-105.932-105.932s0-600.282 0-706.215 105.932-105.932 105.932-105.932h706.215c0 0 105.932 0 105.932 105.932s0 564.972 0 564.972l-105.932-105.932zM476.679 306.754l-105.94 105.94 564.956 564.956 105.94-105.94-564.956-564.956zM335.446 377.379l105.932-105.932-211.864-105.932z" />
<glyph unicode="&#xe921;" glyph-name="sad_bold" d="M512 944c-273.952 0-496-222.080-496-496 0-273.952 222.048-496 496-496s496 222.048 496 496c0 273.92-222.048 496-496 496zM512 48c-220.576 0-400 179.36-400 400 0 220.576 179.424 400 400 400 220.64 0 400-179.424 400-400 0-220.64-179.36-400-400-400zM416 528c0-44.183-35.817-80-80-80s-80 35.817-80 80c0 44.183 35.817 80 80 80s80-35.817 80-80zM768 528c0-44.183-35.817-80-80-80s-80 35.817-80 80c0 44.183 35.817 80 80 80s80-35.817 80-80zM512 224c-56.608 0-108.768-18.592-151.168-49.728l-43.456 86.944c55.776 37.088 122.624 58.784 194.624 58.784 71.968 0 138.848-21.696 194.624-58.784l-43.456-86.944c-42.432 31.136-94.528 49.728-151.168 49.728z" />
<glyph unicode="&#xe922;" glyph-name="false_solid_bold" d="M512 960c-282.784 0-512-229.248-512-512 0-282.784 229.216-512 512-512 282.752 0 512 229.216 512 512 0 282.752-229.248 512-512 512zM768 256.032l-64-64-192 191.968-192-191.968-64 64 192 191.968-192 192 64 64 192-192 192 192 64-64-192-192 192-191.968z" />
<glyph unicode="&#xe923;" glyph-name="smile_bold" d="M512 944c-273.952 0-496-222.080-496-496 0-273.952 222.048-496 496-496s496 222.048 496 496c0 273.92-222.048 496-496 496zM512 48c-220.576 0-400 179.36-400 400 0 220.576 179.424 400 400 400 220.64 0 400-179.424 400-400 0-220.64-179.36-400-400-400zM416 528c0-44.183-35.817-80-80-80s-80 35.817-80 80c0 44.183 35.817 80 80 80s80-35.817 80-80zM768 528c0-44.183-35.817-80-80-80s-80 35.817-80 80c0 44.183 35.817 80 80 80s80-35.817 80-80zM512 256c-56.608 0-108.768 18.592-151.168 49.728l-43.456-86.944c55.776-37.088 122.624-58.784 194.624-58.784 71.968 0 138.848 21.696 194.624 58.784l-43.456 86.944c-42.432-31.136-94.528-49.728-151.168-49.728z" />
<glyph unicode="&#xe924;" glyph-name="caution_solid_bold" d="M512 960c-282.784 0-512-229.248-512-512 0-282.784 229.216-512 512-512 282.752 0 512 229.216 512 512 0 282.752-229.248 512-512 512zM448 768h128v-384h-128v384zM512 128c-53.024 0-96 42.976-96 96s42.976 96 96 96c53.024 0 96-42.976 96-96s-42.976-96-96-96z" />
<glyph unicode="&#xe925;" glyph-name="menu2" d="M928 897.184h-832c-17.6 0-32-14.4-32-32v-65.184c0-17.632 14.4-32 32-32h832c17.6 0 32 14.368 32 32v65.184c0 17.6-14.368 32-32 32zM928 509.632h-832c-17.6 0-32-14.4-32-32v-62.816c0-17.632 14.4-32 32-32h832c17.6 0 32 14.368 32 32v62.816c0 17.6-14.4 32-32 32zM928 128h-832c-17.6 0-32-14.432-32-32v-62.816c0-17.632 14.4-32 32-32h832c17.6 0 32 14.368 32 32v62.816c0 17.568-14.368 32-32 32z" />
<glyph unicode="&#xe926;" glyph-name="up" d="M64 448l64-64 384 384 384-384 64 64-448 448zM64 64l64-64 384 384 384-384 64 64-448 448z" />
<glyph unicode="&#xe927;" glyph-name="down" d="M960 448l-64 64-384-384-384 384-64-64 448-448zM960 832l-64 64-384-384-384 384-64-64 448-448z" />
<glyph unicode="&#xe928;" glyph-name="download_bold" d="M846.912 800h-94.976v-96h96l0.064-608h-672l0.032 608h95.968v96h-94.912c10.176 0 88.96 0.064-1.056 0.064-96.032 0-96.032-96.064-96.032-96.064v0-608c0 0 0-96 96-96s576 0 672 0 96 96 96 96l-0.064 608.064c0 0 0 96-96 96-89.984 0-11.264-0.064-1.024-0.064zM497.088 192h32l191.936 448h-160v256h-95.936v-256h-160l192-448z" />
<glyph unicode="&#xe929;" glyph-name="prev" d="M64 448l832 512v-1024z" />
<glyph unicode="&#xe92a;" glyph-name="next" d="M960 448l-832 512v-1024z" />
<glyph unicode="&#xe92b;" glyph-name="info_bold" d="M576 448c0-35.346-28.654-64-64-64s-64 28.654-64 64c0 35.346 28.654 64 64 64s64-28.654 64-64zM384 448c0-35.346-28.654-64-64-64s-64 28.654-64 64c0 35.346 28.654 64 64 64s64-28.654 64-64zM768 448c0-35.346-28.654-64-64-64s-64 28.654-64 64c0 35.346 28.654 64 64 64s64-28.654 64-64zM512 896c-247.424 0-448-200.608-448-448 0-83.392 23.2-161.184 62.848-228.032l-62.848-219.968 219.968 62.848c66.88-39.648 144.672-62.848 228.032-62.848 247.456 0 448 200.512 448 448 0 247.424-200.544 448-448 448zM512 96c-82.24 0-132.064 16.736-192 64l-116.224-20.224 20.224 116.224c-47.264 59.936-64 109.76-64 192 0 194.4 157.6 352 352 352 194.464 0 352-157.6 352-352 0-194.432-157.536-352-352-352z" />
<glyph unicode="&#xe92c;" glyph-name="appreciate2" d="M992 544c0 0 0 64-96 64-32 0-128 0-128 0l32.032 224c0 0-0.032 32-32.032 64-40.8 40.8-117.888 64-128 64-60 0-64-32-64-32l-96-224-128-128h-352v-640h288v63.968h96l196-63.968c0 0 252 0 284 0s64 64 64 64 96 192 96 256-32 288-32 288zM224 0h-160v512h160v-512zM832 0c-32 0-256 0-256 0l-160.032 64-127.968-0.032v448.032h96l160 160 96 224c0 0 96-32 96-64s-64-288-64-288 192 0 224 0 32-32 32-32 32-224 32-256-96-256-128-256z" />
<glyph unicode="&#xe92d;" glyph-name="speedwork" horiz-adv-x="3456" d="M576 544h320c128 0 128 128 128 128v288h-448v-416zM736 832h128v-128c0 0 0-32-32-32h-96v160zM1024 288h-64v224h-960v-224c0 0 0-128 128-128h736v-64c0 0 0-32-32-32h-32l0.32 30.56h-799.36l-0.96-126.56h800v-32h64c150.336 0 160 128 160 128v224zM800 288h-608c-32 0-32 32-32 32v64h640v-96zM0 544c233.184 0 288 224 288 224h96v-64c0-14.656-19.328-32-32-32h-64v-128h128c128 0 128 128 128 128v224h-224l32 64h-160l-32-64h-160v-128h128c0 0-32-96-128-96 0 0 0.32-127.232 0-128zM1600 672h-64v64h64v128h-64v96h-160v-96h-160v-128h160v-128l-160-224v-256l164.32 218.368-4.32-250.368c0 0 0-32-32-32s-96 0-96 0v-128h160c128 0 128 128 128 128l3.968 442.368h60.032v165.632zM1982.624 960h-158.624v-32h-192v-128h192v-32h-192v-128h192v-32h-192v-128h192v-32h-192v-128h192v-224c-32 0-64 64-64 96l32 96h-160l-96-352h160c0 0 28.928 96 32 96 6.016 0 62.048-97.44 128-96h384v128h-256v64h224v128h-224v64h64c160 0 158.24 128 158.24 128l1.76 32h32v128h-32v160h-224v32h256v125.12h-257.312l-0.064 34.88zM2016 448h-32v32h64c0 0 0-32-32-32zM2048 640v-32h-64v32h64zM2560 288l-128-320h192l128 320zM3328 288h-192l128-320h192zM3424 512h-352v224h-192v-224h-256v256l768 32v160l-928-32v-576h416v-224c0 0 0-32-32-32-61.248 0-96 0-96 0v-160h128c192.64 0 192 192 192 192v224h352v160z" />
<glyph unicode="&#xe92e;" glyph-name="user_solid" d="M804.571 667.429c0-161.583-130.989-292.571-292.571-292.571s-292.571 130.989-292.571 292.571c0 161.583 130.989 292.571 292.571 292.571s292.571-130.989 292.571-292.571zM987.429-64c0 201.947 0 365.714-475.429 365.714s-475.429-163.767-475.429-365.714h950.857z" />
<glyph unicode="&#xe92f;" glyph-name="done_bold" d="M512 944c-273.952 0-496-222.080-496-496 0-273.952 222.048-496 496-496s496 222.048 496 496c0 273.92-222.048 496-496 496zM512 48c-220.576 0-400 179.36-400 400 0 220.576 179.424 400 400 400 220.64 0 400-179.424 400-400 0-220.64-179.36-400-400-400zM752 656l-315.744-315.712-164.256 187.712-64-64 224-256 384 384z" />
<glyph unicode="&#xe930;" glyph-name="left_bold" d="M512 944c-273.952 0-496-222.080-496-496 0-273.952 222.048-496 496-496s496 222.048 496 496c0 273.92-222.048 496-496 496zM512 48c-220.576 0-400 179.36-400 400 0 220.576 179.424 400 400 400 220.64 0 400-179.424 400-400 0-220.64-179.36-400-400-400zM560 656l-64 64-256-256v-32l256-256 64 64-160 160h384v96h-384z" />
<glyph unicode="&#xe931;" glyph-name="right_bold" d="M512 944c273.952 0 496-222.080 496-496 0-273.952-222.048-496-496-496s-496 222.048-496 496c0 273.92 222.048 496 496 496zM512 48c220.576 0 400 179.36 400 400 0 220.576-179.424 400-400 400-220.64 0-400-179.424-400-400 0-220.64 179.36-400 400-400zM464 656l64 64 256-256v-32l-256-256-64 64 160 160h-384v96h384z" />
<glyph unicode="&#xe932;" glyph-name="truck_bold" d="M896 704h-224v64c0 35.2-28.8 64-64 64h-544c-35.2 0-64-28.8-64-64v-512l64-64h33.6c8.064-71.904 68.352-128 142.4-128s134.336 56.096 142.4 128h291.232c8.032-71.904 68.32-128 142.368-128s134.336 56.096 142.368 128h65.632v256l-128 256zM240 160c-26.496 0-48 21.472-48 48s21.504 48 48 48 48-21.472 48-48-21.504-48-48-48zM576 288h-216.32c-25.824 38.56-69.76 64-119.68 64s-93.856-25.44-119.68-64h-24.32v448h480v-448zM816 160c-26.528 0-48 21.472-48 48s21.472 48 48 48 48-21.472 48-48-21.472-48-48-48zM928 297.504c-26.368 32.96-66.464 54.496-112 54.496-49.92 0-93.856-25.44-119.68-64h-24.32v320h160l38.4-64h-134.4v-96h192v-150.496z" />
<glyph unicode="&#xe933;" glyph-name="sheet_bold" d="M56.89 846.223c0-113.777 0-682.668 0-796.445s113.777-113.777 113.777-113.777h682.668c0 0 113.777 0 113.777 113.777s0 644.74 0 644.74l-227.555 265.483h-568.89c0 0-113.777 0-113.777-113.777zM853.332 49.777h-682.668v796.445h493.038c0 0 0-151.702 0-189.63s37.925-37.925 37.925-37.925h151.702v-568.89zM284.445 732.445h265.483v-113.777h-265.483v113.777zM284.445 504.89h455.11v-113.777h-455.11v113.777zM284.445 277.332h455.11v-113.777h-455.11v113.777z" />
<glyph unicode="&#xe934;" glyph-name="money_bold" d="M170.667-64h568.889l227.556 227.556c0 0 0 568.889 0 682.667s-113.778 113.778-113.778 113.778h-682.667c0 0-113.778 0-113.778-113.778s0-682.667 0-796.444 113.778-113.778 113.778-113.778zM853.333 239.407l-189.63-189.63h-493.037v796.444h682.667v-606.815zM701.63 770.37h-113.778l-75.852-227.556-75.852 227.556h-113.778l75.852-227.556h-75.852v-113.778h113.778v-75.852h-113.778v-113.778h113.778v-113.778h151.704v113.778h113.778v113.778h-113.778v75.852h113.778v113.778h-75.852z" />
<glyph unicode="&#xe935;" glyph-name="back_thin" d="M768 896l-61.376 64-546.624-512 544-512 64 64-480 448z" />
<glyph unicode="&#xe936;" glyph-name="false_thin2" d="M960 832l-64 64-384-384-384 384-64-64 384-384-384-384 64-64 384 384 384-384 64 64-384 384z" />
<glyph unicode="&#xe937;" glyph-name="right_thin" d="M896 768l64-64-544-544-352 352 64 64 288-288z" />
<glyph unicode="&#xe938;" glyph-name="video_bold" d="M928 672h-117.376l149.344 224-95.968 64-192-288-192 288-95.968-64 149.344-224h-437.376c0 0-96 0-96-96s0-448 0-544 96-96 96-96h832c0 0 96 0 96 96s0 448 0 544-96 96-96 96zM704 32h-608v544h608v-544zM864 192c-35.328 0-64 28.672-64 64 0 35.36 28.672 64 64 64s64-28.64 64-64c0-35.328-28.672-64-64-64zM864 384c-35.328 0-64 28.672-64 64 0 35.36 28.672 64 64 64s64-28.64 64-64c0-35.328-28.672-64-64-64zM576 288l-256 160v-320z" />
<glyph unicode="&#xe939;" glyph-name="empty_bold" d="M928 800l-864-128-32 96 864 128zM576 800l-192-64-64 160 192 64zM160 608c0 0 0-480 0-576s96-96 96-96h515.872c0 0 92.128 0 92.128 96s0 576 0 576h-704zM768 32c0 0-512 0.032-512 0.032v479.968h512v-480zM352 416h96v-288h-96v288zM576 416h96v-288h-96v288z" />
<glyph unicode="&#xe93a;" glyph-name="plus_bold" d="M512 960c-282.752 0-512-229.248-512-512s229.248-512 512-512c282.752 0 512 229.248 512 512s-229.248 512-512 512zM512 32c-229.376 0-416 186.624-416 416s186.624 416 416 416c229.376 0 416-186.624 416-416s-186.624-416-416-416zM208 496h608v-96h-608v96zM464 752h96v-608h-96v608z" />
<glyph unicode="&#xe93b;" glyph-name="minus_bold" d="M512 960c-282.752 0-512-229.248-512-512s229.248-512 512-512c282.752 0 512 229.248 512 512s-229.248 512-512 512zM512 32c-229.376 0-416 186.624-416 416s186.624 416 416 416c229.376 0 416-186.624 416-416s-186.624-416-416-416zM208 496h608v-96h-608v96z" />
<glyph unicode="&#xe93c;" glyph-name="setHeading" d="M96 896h192v-896h-192v896zM736 896h192v-896h-192v896zM288 560h448v-224h-448v224z" />
<glyph unicode="&#xe93d;" glyph-name="setBold" d="M608 896h-484v-896h484c0 0 288 0 288 256 0 113.984-64 169.984-112 192 56 41.984 80 94.016 80 192 0 256-256 256-256 256zM640 192h-324v160h324c0 0 64-7.84 64-82.592s-64-77.408-64-77.408zM608 544h-292v160h292c0 0 64-1.376 64-80.384s-64-79.616-64-79.616z" />
<glyph unicode="&#xe93e;" glyph-name="setImg" d="M928 960h-832c-52.8 0-96-43.2-96-96v-832c0-52.8 43.2-96 96-96h832c52.8 0 96 43.2 96 96v832c0 52.8-43.2 96-96 96zM928 32h-832v832h832v-832zM384 640c0-53.019-42.981-96-96-96s-96 42.981-96 96c0 53.019 42.981 96 96 96s96-42.981 96-96zM864 544l-192-192-192 192-320-320v-128h704z" />
<glyph unicode="&#xe93f;" glyph-name="player" d="M512 960c-282.784 0-512-229.216-512-512s229.216-512 512-512 512 229.216 512 512-229.216 512-512 512zM512 32c-229.376 0-416 186.624-416 416s186.624 416 416 416c229.376 0 416-186.624 416-416s-186.624-416-416-416zM712.704 480.224l-273.44 159.52c-30.4 17.728-55.264 3.456-55.264-31.744v-320c0-35.2 24.864-49.504 55.296-31.744l273.44 159.488c30.4 17.728 30.4 46.752-0.032 64.48z" />
</font>
</defs>
</svg>
